<svg width="709" height="299" viewBox="0 0 709 299" fill="none" xmlns="http://www.w3.org/2000/svg">
<g filter="url(#filter0_d_11_14347)">
<path d="M14.1161 83.6516L15.3982 84.3667L13.7903 90.8661L11.8523 90.1214L10.4517 92.0298C10.4517 92.0298 8.48413 91.9409 8.54337 90.6292C8.60261 89.3174 9.49542 84.1002 10.9256 81.536C12.3558 78.9717 13.5491 81.6544 13.5491 81.6544L14.1161 83.6516Z" fill="url(#paint0_diamond_11_14347)"/>
</g>
<path d="M247.265 195.599C244.698 171.295 261.905 167.343 266.247 168.196L251.992 149.151L232.68 169.309C235.557 188.06 249.567 217.391 247.265 195.599Z" fill="url(#paint1_linear_11_14347)"/>
<path d="M334.825 104.916C340.763 101.504 341.55 96.676 340.694 91.3797L310.461 76.8703L270.187 80.9663L262.57 133.199L294.111 133.309C295.313 130.953 283.824 128.244 284.239 119.061C284.721 108.385 290.269 103.332 300.78 102.064C308.709 101.108 327.403 109.181 334.825 104.916Z" fill="url(#paint2_linear_11_14347)"/>
<path d="M214.421 224.347C224.583 232.167 240.663 239.925 249.783 241.717C258.903 243.509 272.12 241.881 278.252 237.088C284.383 232.295 283.287 227.457 283.376 225.489L14.2259 87.8088C12.4107 98.8992 14.4361 110.761 10.7478 121.169C5.47546 136.047 16.2417 179.492 31.0415 195.692C42.3139 208.031 56.2394 219.832 73.1735 223.226C90.1076 226.619 114.649 223.198 130.619 217.276C147.997 210.832 167.279 207.692 178.941 209.601C190.032 211.416 204.259 216.527 214.421 224.347Z" fill="#796654"/>
<path d="M292.291 129.94L292.291 129.94C282.168 140.656 259.382 158.574 254.708 161.76C249.283 165.459 242.576 174.399 243.266 182.274C244.134 192.171 248.843 203.497 259.849 207.997C268.883 211.691 285.377 219.008 283.287 227.457C281.679 233.956 263.882 235.124 252.821 232.653C241.853 230.203 232.62 224.991 220.083 215.402C205.472 204.227 200.97 202.052 186.003 198.747C171.037 195.442 151.094 200.457 131.033 208.094C102.279 219.042 70.2495 215.207 57.3395 210.024C40.5117 203.267 27.3136 190.924 18.8127 175.424C11.6769 158.803 9.62216 146.092 9.25826 125.045C8.89432 103.998 13.5108 89.0909 20.3613 68.3698C27.2119 47.6486 42.411 31.2477 57.4028 19.4379C72.3946 7.62809 98.807 4.87765 113.236 5.52928C128.673 6.22644 157.469 22.1647 171.853 31.8358C186.523 41.6991 194.398 56.5131 218.906 66.8208C231.16 71.9747 248.243 72.0889 263.505 68.8349C272.132 66.9958 298.699 60.8189 314.811 67.8659C321.004 70.5745 347.697 81.8379 340.427 97.2825C334.444 109.995 320.751 96.3939 307.634 95.8015C297.14 95.3276 282.952 100.454 281.404 109.075C279.648 118.854 285.969 124.397 292.291 129.94Z" fill="url(#paint3_linear_11_14347)"/>
<path opacity="0.2" d="M155.216 21.8834L17.2938 78.0891C22.1472 57.9351 36.2715 36.2282 47.8655 26.8936C55.9696 20.6639 60.0409 17.2105 68.1931 13.353C100.297 1.00164 122.626 1.35283 155.216 21.8834Z" fill="url(#paint4_linear_11_14347)"/>
<path d="M68.1212 139.324C72.8011 137.564 80.7308 136.608 84.4587 141.376C88.1865 146.145 83.8366 155.15 81.065 158.31C78.2935 161.471 70.1862 166.363 64.1353 169.375L64.135 169.376C58.0841 172.388 45.9825 178.414 42.2548 173.645C38.5271 168.876 44.1293 161.243 51.073 153.013C58.0167 144.783 63.4413 141.084 68.1212 139.324Z" fill="#4B4B4B"/>
<g filter="url(#filter1_d_11_14347)">
<path d="M69.4921 138.072C74.172 136.312 82.1017 135.355 85.8295 140.124C89.5574 144.893 85.2074 153.897 82.4359 157.058C79.6643 160.219 71.557 165.11 65.5061 168.123L65.5059 168.123C59.4549 171.136 47.3534 177.161 43.6257 172.393C39.8979 167.624 45.5002 159.99 52.4438 151.76C59.3875 143.53 64.8122 139.832 69.4921 138.072Z" fill="url(#paint5_linear_11_14347)"/>
</g>
<path d="M45.5552 169.579C42.5471 165.011 56.9335 145.396 62.7362 145.024C68.5389 144.653 75.7811 155.112 74.3267 158.846C72.8723 162.58 48.5633 174.148 45.5552 169.579Z" fill="url(#paint6_linear_11_14347)"/>
<ellipse cx="4.59573" cy="2.34028" rx="4.59573" ry="2.34028" transform="matrix(0.633412 0.773814 -0.773813 0.633414 66.752 147.326)" fill="#212121"/>
<ellipse cx="4.59574" cy="5.9088" rx="4.59574" ry="5.9088" transform="matrix(-0.457527 0.889196 -0.889195 -0.457528 614.041 207.4)" fill="url(#paint7_linear_11_14347)"/>
<ellipse cx="4.59574" cy="2.94663" rx="4.59574" ry="2.94663" transform="matrix(-0.457527 0.889196 -0.889195 -0.457528 626.753 214.043)" fill="url(#paint8_linear_11_14347)"/>
<ellipse cx="4.59574" cy="5.9088" rx="4.59574" ry="5.9088" transform="matrix(-0.457527 0.889196 -0.889195 -0.457528 646.084 224.039)" fill="url(#paint9_linear_11_14347)"/>
<ellipse cx="4.59574" cy="5.9088" rx="4.59574" ry="5.9088" transform="matrix(-0.457527 0.889196 -0.889195 -0.457528 662.781 232.679)" fill="url(#paint10_linear_11_14347)"/>
<ellipse cx="4.59574" cy="3.76833" rx="4.59574" ry="3.76833" transform="matrix(-0.457527 0.889196 -0.889195 -0.457528 676.263 240.281)" fill="url(#paint11_linear_11_14347)"/>
<ellipse cx="4.59574" cy="5.9088" rx="4.59574" ry="5.9088" transform="matrix(-0.457527 0.889196 -0.889195 -0.457528 693.552 249.842)" fill="url(#paint12_linear_11_14347)"/>
<path d="M287.511 174.653C282.293 173.76 257.459 170.667 257.459 170.667L257.815 162.797L250.033 160.474C249.063 160.184 246.813 159.014 246.276 156.361C245.738 153.708 245.319 148.431 247.82 136.715C250.321 124.998 253.033 123.149 253.033 123.149L255.513 141.005L451.269 186.649L576.726 217.288L635.88 246.248L696.78 276.572C696.78 276.572 698.166 278.635 693.19 286.954C688.214 295.273 680.196 298.197 672.981 297.871C665.767 297.545 659.43 292.33 655.717 287.233C652.004 282.136 650.944 276.502 645.16 273.612C639.375 270.722 634.607 274.45 622.056 275.855C609.506 277.26 602.977 276.308 597.73 276.071C592.483 275.834 589.263 274.374 588.696 272.377C588.129 270.38 589.229 260.571 585.65 252.523C582.07 244.475 576.912 242.27 573.751 239.499C570.59 236.727 560.274 232.318 560.274 232.318L530.371 225.053L482.878 214.365L442.54 205.314L374.893 189.772L341.681 183.014C341.681 183.014 317.591 177.983 313 177.776C308.409 177.569 292.728 175.546 287.511 174.653Z" fill="#8D5A2A"/>
<path d="M592.78 269.275L588.726 271.721C587.947 259.856 588.007 258.544 585.65 252.523C583.834 247.883 576.713 241.823 573.751 239.499C569.05 236.877 563.248 229.784 571.394 233.477C581.054 237.857 587.376 243.4 590.389 249.451C593.15 254.995 594.506 260.152 592.78 269.275Z" fill="url(#paint13_linear_11_14347)"/>
<path d="M649.332 268.543C646.082 267.739 639.095 271.104 643.222 272.868C645.732 273.941 647.097 274.06 650.199 278.44C652.196 281.26 656.083 288.592 657.566 289.945C661.353 293.402 664.544 295.518 666.482 296.263C667.138 296.292 671.877 293.22 671.877 293.22C669.502 292.456 663.719 290.486 659.83 283.476C655.94 276.465 652.582 269.347 649.332 268.543Z" fill="url(#paint14_linear_11_14347)"/>
<path d="M263.527 123.623L574.695 204.053C574.695 204.053 579.078 208.851 581.702 208.969C584.325 209.088 587.871 203.333 592.462 203.541C597.053 203.748 683.014 250.348 687.427 254.491C691.84 258.633 700.071 265.577 696.855 278.576C693.639 291.575 683.505 297.689 669.939 292.476C656.373 287.263 657.084 271.522 648.676 268.513C640.268 265.505 630.849 270.337 622.92 271.293C614.99 272.25 592.122 273.163 592.809 268.619C596.558 243.815 578.232 237.291 570.112 232.762L440.035 202.572C395.374 192.23 303.857 171.004 293.054 168.331C283.305 165.92 265.745 161.816 255.339 159.399C251.293 158.526 247.929 157.058 247.676 154.452C246.331 140.59 250.977 125.027 253.033 123.149C255.09 121.27 260.725 122.62 263.527 123.623Z" fill="url(#paint15_linear_11_14347)"/>
<path d="M574.039 204.023L572.08 232.851L568.83 232.047L570.789 203.219L574.039 204.023Z" fill="url(#paint16_linear_11_14347)"/>
<path d="M566.843 232.389C568.044 231.674 568.8 232.703 568.83 232.047C568.86 231.391 572.124 231.858 572.09 232.626C572.055 233.395 569.105 234.031 569.105 234.031C569.105 234.031 567.391 233.184 566.843 232.389Z" fill="#EDDEC1"/>
<path d="M548.549 197.209L546.195 227.293L544.181 226.731L546.617 196.659L548.549 197.209Z" fill="url(#paint17_linear_11_14347)"/>
<path d="M525.455 191.408L522.666 221.817L520.66 221.225L523.531 190.828L525.455 191.408Z" fill="url(#paint18_linear_11_14347)"/>
<path d="M503.227 185.51L500.668 216.758L498.657 216.176L501.297 184.94L503.227 185.51Z" fill="url(#paint19_linear_11_14347)"/>
<path d="M482.642 180.245L479.652 211.981L477.649 211.369L480.72 179.646L482.642 180.245Z" fill="url(#paint20_linear_11_14347)"/>
<path d="M463.208 175.12L460.105 207.358L458.104 206.736L461.288 174.511L463.208 175.12Z" fill="url(#paint21_linear_11_14347)"/>
<path d="M444.985 170.458L441.855 203.138L439.854 202.513L443.065 169.846L444.985 170.458Z" fill="url(#paint22_linear_11_14347)"/>
<path d="M426.891 165.822L423.609 198.9L421.611 198.263L424.974 165.199L426.891 165.822Z" fill="url(#paint23_linear_11_14347)"/>
<path d="M411.659 161.765L407.567 195.347L405.584 194.659L409.757 161.092L411.659 161.765Z" fill="url(#paint24_linear_11_14347)"/>
<path d="M394.598 157.679L390.831 191.615L388.842 190.945L392.689 157.023L394.598 157.679Z" fill="url(#paint25_linear_11_14347)"/>
<path d="M379.335 153.632L374.852 188.009L372.877 187.295L377.44 152.934L379.335 153.632Z" fill="url(#paint26_linear_11_14347)"/>
<path d="M366.506 150.275L361.721 184.647L359.751 183.916L364.616 149.56L366.506 150.275Z" fill="url(#paint27_linear_11_14347)"/>
<path d="M352.68 146.794L347.915 181.509L345.661 180.729L350.518 146.032L352.68 146.794Z" fill="url(#paint28_linear_11_14347)"/>
<path d="M340.467 143.549L335.763 178.527L333.801 177.8L338.585 142.838L340.467 143.549Z" fill="url(#paint29_linear_11_14347)"/>
<path d="M328.28 140.4L323.096 175.644L321.134 174.887L326.398 139.661L328.28 140.4Z" fill="url(#paint30_linear_11_14347)"/>
<path d="M317.318 137.624L311.442 173.291L309.568 172.51L315.52 136.86L317.318 137.624Z" fill="url(#paint31_linear_11_14347)"/>
<path d="M307.144 134.931L301.755 170.57L299.797 169.801L305.266 134.18L307.144 134.931Z" fill="url(#paint32_linear_11_14347)"/>
<path d="M295.337 132.315L290.252 168.091L288.287 167.338L293.452 131.579L295.337 132.315Z" fill="url(#paint33_linear_11_14347)"/>
<path d="M286.286 129.807L281.027 165.682L279.066 164.919L284.405 129.062L286.286 129.807Z" fill="url(#paint34_linear_11_14347)"/>
<path d="M277.143 127.971L271.808 163.269L269.849 162.504L275.264 127.223L277.143 127.971Z" fill="url(#paint35_linear_11_14347)"/>
<path d="M269.599 125.651L264.054 161.381L262.099 160.603L267.724 124.891L269.599 125.651Z" fill="url(#paint36_linear_11_14347)"/>
<path d="M260.637 123.186L255.059 159.339L253.104 158.558L258.762 122.422L260.637 123.186Z" fill="url(#paint37_linear_11_14347)"/>
<ellipse cx="512.269" cy="203.862" rx="2.10452" ry="2.63066" transform="rotate(117.518 512.269 203.862)" fill="#707070"/>
<ellipse cx="2.00171" cy="2.50213" rx="2.00171" ry="2.50213" transform="matrix(-0.462034 0.886862 -0.886862 -0.462035 473.06 191.955)" fill="#707070"/>
<ellipse cx="2.00171" cy="2.50213" rx="2.00171" ry="2.50213" transform="matrix(-0.462033 0.886863 -0.886861 -0.462036 436.687 182.426)" fill="#707070"/>
<ellipse cx="399.734" cy="174.947" rx="2.00171" ry="2.50214" transform="rotate(117.518 399.734 174.947)" fill="#707070"/>
<ellipse cx="319.118" cy="155.533" rx="2.00171" ry="2.50214" transform="rotate(117.518 319.118 155.533)" fill="#707070"/>
<ellipse cx="2.04055" cy="2.71988" rx="2.04055" ry="2.71988" transform="matrix(-0.462034 0.886862 -0.886862 -0.462035 301.529 148.685)" fill="#707070"/>
<ellipse cx="2.04031" cy="2.20319" rx="2.04031" ry="2.20319" transform="matrix(-0.462034 0.886862 -0.886861 -0.462036 281.014 143.826)" fill="#707070"/>
<ellipse cx="261.755" cy="140.904" rx="1.94619" ry="2.20832" transform="rotate(117.518 261.755 140.904)" fill="#707070"/>
<ellipse cx="2.00171" cy="2.50213" rx="2.00171" ry="2.50213" transform="matrix(-0.462033 0.886863 -0.886861 -0.462036 360.302 156.632)" fill="#707070"/>
<ellipse cx="1.9696" cy="2.41927" rx="1.9696" ry="2.41927" transform="matrix(-0.462034 0.886862 -0.886861 -0.462036 357.981 171.334)" fill="#707070"/>
<path opacity="0.3" d="M664.715 264.731L663.217 268.572C663.217 268.572 655.362 264.222 649.625 262.602C643.889 260.982 634.536 260.472 634.536 260.472L635.651 256.523C635.651 256.523 645.116 256.638 650.852 258.258C656.588 259.878 664.715 264.731 664.715 264.731Z" fill="#675A47"/>
<path opacity="0.3" d="M629.16 263.667L629.542 259.017C629.542 259.017 609.058 258.092 607.234 254.812C605.411 251.533 615.997 249.95 607.501 248.909C603.494 247.874 601.361 253.89 601.361 253.89C601.361 253.89 599.127 259.704 602.944 262.505C606.76 265.306 606.249 261.906 612.127 262.898C618.004 263.89 629.16 263.667 629.16 263.667Z" fill="#675A47"/>
<ellipse cx="3.28267" cy="4.59573" rx="3.28267" ry="4.59573" transform="matrix(-0.609718 0.792618 -0.792617 -0.60972 586.982 223.027)" fill="#6D3E10"/>
<g filter="url(#filter2_d_11_14347)">
<circle cx="232.818" cy="116.998" r="1" transform="rotate(100.705 232.818 116.998)" fill="#828282"/>
</g>
<g filter="url(#filter3_d_11_14347)">
<circle cx="231.89" cy="121.911" r="1" transform="rotate(100.705 231.89 121.911)" fill="#828282"/>
</g>
<g filter="url(#filter4_d_11_14347)">
<circle cx="230.961" cy="126.824" r="1" transform="rotate(100.705 230.961 126.824)" fill="#828282"/>
</g>
<g filter="url(#filter5_d_11_14347)">
<circle cx="230.032" cy="131.737" r="1" transform="rotate(100.705 230.032 131.737)" fill="#828282"/>
</g>
<g filter="url(#filter6_d_11_14347)">
<circle cx="229.103" cy="136.65" r="1" transform="rotate(100.705 229.103 136.65)" fill="#828282"/>
</g>
<g filter="url(#filter7_d_11_14347)">
<circle cx="228.175" cy="141.563" r="1" transform="rotate(100.705 228.175 141.563)" fill="#828282"/>
</g>
<g filter="url(#filter8_d_11_14347)">
<ellipse cx="189.304" cy="105.833" rx="1" ry="1" transform="rotate(99.3136 189.304 105.833)" fill="#828282"/>
</g>
<g filter="url(#filter9_d_11_14347)">
<ellipse cx="188.495" cy="110.767" rx="1" ry="1" transform="rotate(99.3136 188.495 110.767)" fill="#828282"/>
</g>
<g filter="url(#filter10_d_11_14347)">
<ellipse cx="187.686" cy="115.702" rx="1" ry="1" transform="rotate(99.3136 187.686 115.702)" fill="#828282"/>
</g>
<g filter="url(#filter11_d_11_14347)">
<ellipse cx="186.877" cy="120.636" rx="1" ry="1" transform="rotate(99.3136 186.877 120.636)" fill="#828282"/>
</g>
<g filter="url(#filter12_d_11_14347)">
<ellipse cx="186.068" cy="125.57" rx="1" ry="1" transform="rotate(99.3136 186.068 125.57)" fill="#828282"/>
</g>
<g filter="url(#filter13_d_11_14347)">
<ellipse cx="185.259" cy="130.504" rx="1" ry="1" transform="rotate(99.3136 185.259 130.504)" fill="#828282"/>
</g>
<g filter="url(#filter14_d_11_14347)">
<circle cx="1" cy="1" r="1" transform="matrix(-0.480041 0.877246 -0.877245 -0.480042 155.958 96.8156)" fill="#828282"/>
</g>
<g filter="url(#filter15_d_11_14347)">
<circle cx="1" cy="1" r="1" transform="matrix(-0.480041 0.877246 -0.877245 -0.480042 153.318 101.64)" fill="#828282"/>
</g>
<g filter="url(#filter16_d_11_14347)">
<circle cx="1" cy="1" r="1" transform="matrix(-0.480041 0.877246 -0.877245 -0.480042 150.677 106.465)" fill="#828282"/>
</g>
<g filter="url(#filter17_d_11_14347)">
<circle cx="1" cy="1" r="1" transform="matrix(-0.480041 0.877246 -0.877245 -0.480042 148.037 111.29)" fill="#828282"/>
</g>
<g filter="url(#filter18_d_11_14347)">
<circle cx="1" cy="1" r="1" transform="matrix(-0.480041 0.877246 -0.877245 -0.480042 145.397 116.115)" fill="#828282"/>
</g>
<g filter="url(#filter19_d_11_14347)">
<circle cx="1" cy="1" r="1" transform="matrix(-0.480041 0.877246 -0.877245 -0.480042 142.757 120.94)" fill="#828282"/>
</g>
<circle cx="3.5" cy="3.5" r="3.5" transform="matrix(-0.473031 0.881046 -0.881045 -0.473033 680.019 253.431)" fill="url(#paint38_linear_11_14347)"/>
<circle cx="3.5" cy="3.5" r="3.5" transform="matrix(-0.473031 0.881046 -0.881045 -0.473033 668.565 247.282)" fill="url(#paint39_linear_11_14347)"/>
<circle cx="3.5" cy="3.5" r="3.5" transform="matrix(-0.473031 0.881046 -0.881045 -0.473033 657.112 241.132)" fill="url(#paint40_linear_11_14347)"/>
<circle cx="3.5" cy="3.5" r="3.5" transform="matrix(-0.473031 0.881046 -0.881045 -0.473033 645.658 234.983)" fill="url(#paint41_linear_11_14347)"/>
<circle cx="3.5" cy="3.5" r="3.5" transform="matrix(-0.473031 0.881046 -0.881045 -0.473033 634.204 228.833)" fill="url(#paint42_linear_11_14347)"/>
<circle cx="3.5" cy="3.5" r="3.5" transform="matrix(-0.473031 0.881046 -0.881045 -0.473033 622.751 222.684)" fill="url(#paint43_linear_11_14347)"/>
<g filter="url(#filter20_d_11_14347)">
<path d="M115.237 85.5895L339.915 145.683L573.776 206.192" stroke="#EEEEEE" stroke-opacity="0.01"/>
<path d="M114.912 92.804L337.025 151.468L573.568 210.783" stroke="#EEEEEE" stroke-opacity="0.01" stroke-width="0.8"/>
<path d="M115.212 100.704L354.26 162.761L572.705 215.345" stroke="#EEEEEE" stroke-opacity="0.01" stroke-width="0.7"/>
<path d="M111.01 106.429L362.46 170.361L573.094 221.277" stroke="#EEEEEE" stroke-opacity="0.01" stroke-width="0.5"/>
<path d="M110.029 113.614L384.315 181.206L572.917 225.212" stroke="#EEEEEE" stroke-opacity="0.01" stroke-width="0.5"/>
<path d="M109.047 120.799L392.545 188.15L572.709 229.804" stroke="#EEEEEE" stroke-opacity="0.01" stroke-width="0.3"/>
</g>
<path d="M116.023 85.1365C115.756 85.065 115.482 85.2232 115.41 85.4899C115.339 85.7566 115.497 86.0308 115.764 86.1024L116.023 85.1365ZM573.776 206.192L574.105 205.816L574.016 205.738L573.901 205.708L573.776 206.192ZM594.975 217.008L594.795 217.474L594.975 217.008ZM339.915 145.684L339.786 146.167L339.79 146.168L339.915 145.684ZM594.795 217.474C597.792 218.626 599.76 218.405 601.009 217.803C601.626 217.506 602.044 217.126 602.31 216.815C602.443 216.659 602.537 216.52 602.601 216.417C602.632 216.365 602.656 216.322 602.673 216.29C602.682 216.274 602.688 216.261 602.693 216.25C602.696 216.245 602.698 216.241 602.7 216.237C602.701 216.235 602.701 216.233 602.702 216.232C602.702 216.231 602.703 216.231 602.703 216.23C602.703 216.23 602.703 216.229 602.703 216.229C602.704 216.229 602.704 216.228 602.248 216.022C601.793 215.815 601.793 215.815 601.793 215.815C601.793 215.815 601.794 215.814 601.794 215.814C601.794 215.814 601.794 215.813 601.794 215.813C601.795 215.812 601.795 215.812 601.795 215.811C601.795 215.811 601.795 215.811 601.795 215.812C601.794 215.813 601.792 215.818 601.788 215.825C601.781 215.839 601.768 215.863 601.748 215.895C601.709 215.959 601.644 216.054 601.549 216.166C601.359 216.388 601.049 216.674 600.575 216.902C599.64 217.352 597.971 217.624 595.154 216.541L594.795 217.474ZM115.764 86.1024L339.786 146.167L340.045 145.201L116.023 85.1365L115.764 86.1024ZM339.79 146.168L573.65 206.676L573.901 205.708L340.041 145.2L339.79 146.168ZM573.776 206.192C573.446 206.568 573.446 206.568 573.446 206.569C573.446 206.569 573.446 206.569 573.446 206.569C573.447 206.569 573.447 206.569 573.447 206.569C573.448 206.57 573.449 206.571 573.45 206.572C573.452 206.573 573.454 206.576 573.458 206.579C573.465 206.585 573.475 206.594 573.489 206.605C573.516 206.628 573.555 206.661 573.606 206.703C573.709 206.788 573.862 206.911 574.065 207.067C574.471 207.38 575.077 207.824 575.885 208.36C577.5 209.431 579.924 210.867 583.17 212.339L583.583 211.428C580.389 209.98 578.012 208.571 576.437 207.526C575.65 207.004 575.063 206.573 574.675 206.275C574.481 206.125 574.337 206.009 574.242 205.931C574.194 205.892 574.159 205.863 574.136 205.843C574.125 205.834 574.117 205.826 574.112 205.822C574.109 205.82 574.107 205.818 574.106 205.817C574.106 205.817 574.105 205.816 574.105 205.816C574.105 205.816 574.105 205.816 574.105 205.816C574.105 205.816 574.105 205.816 574.105 205.816C574.105 205.816 574.105 205.816 573.776 206.192ZM583.17 212.339C589.599 215.254 592.387 216.549 594.795 217.474L595.154 216.541C592.781 215.629 590.034 214.353 583.583 211.428L583.17 212.339Z" fill="#BCBCBC"/>
<path d="M115.67 92.4471C115.456 92.3905 115.237 92.5178 115.181 92.7314C115.124 92.9449 115.252 93.1639 115.465 93.2204L115.67 92.4471ZM574.194 211.469L574.359 211.104L574.327 211.09L574.293 211.081L574.194 211.469ZM611.701 224.992L611.558 225.366L611.701 224.992ZM337.025 151.468L336.923 151.855L336.927 151.856L337.025 151.468ZM594.2 219.601L594.336 219.225L594.2 219.601ZM611.558 225.366C613.553 226.132 614.826 226.049 615.628 225.692C616.026 225.515 616.289 225.278 616.454 225.077C616.536 224.978 616.594 224.888 616.632 224.819C616.651 224.785 616.665 224.756 616.676 224.733C616.681 224.722 616.685 224.712 616.688 224.705C616.69 224.701 616.691 224.697 616.693 224.695C616.693 224.693 616.694 224.692 616.694 224.691C616.694 224.69 616.695 224.689 616.695 224.689C616.695 224.689 616.695 224.688 616.695 224.688C616.695 224.688 616.696 224.687 616.322 224.544C615.949 224.4 615.949 224.4 615.949 224.4C615.949 224.399 615.949 224.399 615.949 224.399C615.949 224.398 615.95 224.398 615.95 224.398C615.95 224.397 615.95 224.396 615.951 224.396C615.951 224.395 615.951 224.394 615.951 224.394C615.952 224.393 615.951 224.394 615.95 224.397C615.947 224.402 615.942 224.413 615.933 224.429C615.916 224.461 615.885 224.51 615.836 224.569C615.741 224.685 615.575 224.84 615.303 224.961C614.763 225.201 613.725 225.341 611.845 224.619L611.558 225.366ZM115.465 93.2204L336.923 151.855L337.128 151.081L115.67 92.4471L115.465 93.2204ZM336.927 151.856L574.096 211.857L574.293 211.081L337.123 151.08L336.927 151.856ZM574.194 211.469C574.03 211.833 574.03 211.833 574.03 211.833C574.03 211.833 574.03 211.833 574.03 211.833C574.031 211.834 574.031 211.834 574.032 211.834C574.033 211.835 574.035 211.836 574.037 211.837C574.042 211.839 574.05 211.842 574.06 211.847C574.079 211.856 574.109 211.869 574.147 211.886C574.225 211.921 574.339 211.972 574.488 212.039C574.786 212.172 575.223 212.365 575.778 212.609C576.888 213.096 578.469 213.782 580.358 214.579C584.135 216.172 589.144 218.208 594.065 219.978L594.336 219.225C589.433 217.462 584.439 215.432 580.669 213.842C578.784 213.047 577.206 212.362 576.1 211.876C575.546 211.634 575.111 211.44 574.814 211.308C574.666 211.242 574.552 211.191 574.475 211.156C574.437 211.139 574.408 211.126 574.388 211.117C574.378 211.113 574.371 211.11 574.366 211.107C574.364 211.106 574.362 211.106 574.361 211.105C574.36 211.105 574.36 211.105 574.359 211.104C574.359 211.104 574.359 211.104 574.359 211.104C574.359 211.104 574.359 211.104 574.194 211.469ZM594.065 219.978C598.074 221.419 602.024 222.603 605.186 223.508C608.369 224.42 610.71 225.04 611.558 225.366L611.845 224.619C610.954 224.276 608.54 223.637 605.406 222.739C602.251 221.835 598.32 220.658 594.336 219.225L594.065 219.978Z" fill="#BCBCBC"/>
<path d="M115.285 100.362C115.096 100.322 114.91 100.442 114.87 100.631C114.829 100.82 114.95 101.006 115.139 101.046L115.285 100.362ZM574.643 216.089L574.751 215.757L574.739 215.752L574.725 215.749L574.643 216.089ZM354.26 162.761L354.172 163.1L354.178 163.102L354.26 162.761ZM119.118 101.538L119.206 101.199L119.198 101.197L119.191 101.196L119.118 101.538ZM574.643 216.089C574.535 216.422 574.535 216.422 574.535 216.422C574.536 216.422 574.536 216.423 574.537 216.423C574.538 216.423 574.541 216.424 574.544 216.425C574.55 216.427 574.559 216.43 574.57 216.434C574.594 216.442 574.629 216.453 574.676 216.468C574.769 216.499 574.908 216.544 575.088 216.602C575.45 216.72 575.981 216.893 576.657 217.114C578.011 217.555 579.949 218.186 582.286 218.949C586.961 220.475 593.235 222.524 599.63 224.62C612.429 228.815 625.69 233.189 627.617 233.93L627.868 233.276C625.92 232.528 612.631 228.145 599.848 223.955C593.453 221.859 587.179 219.809 582.503 218.284C580.166 217.521 578.228 216.889 576.874 216.448C576.197 216.228 575.667 216.055 575.305 215.937C575.124 215.878 574.986 215.833 574.893 215.803C574.846 215.787 574.811 215.776 574.787 215.768C574.775 215.764 574.766 215.761 574.76 215.759C574.757 215.759 574.755 215.758 574.754 215.757C574.753 215.757 574.752 215.757 574.752 215.757C574.752 215.757 574.751 215.757 574.643 216.089ZM627.617 233.93C628.644 234.324 629.477 234.334 630.144 234.073C630.807 233.813 631.25 233.307 631.544 232.781C631.836 232.256 631.993 231.69 632.076 231.263C632.119 231.048 632.143 230.864 632.157 230.733C632.165 230.668 632.169 230.615 632.172 230.579C632.173 230.56 632.174 230.546 632.175 230.535C632.175 230.53 632.175 230.526 632.175 230.523C632.175 230.521 632.176 230.52 632.176 230.519C632.176 230.519 632.176 230.518 632.176 230.518C632.176 230.518 632.176 230.518 632.176 230.518C632.176 230.517 632.176 230.517 631.826 230.502C631.476 230.486 631.476 230.486 631.476 230.485C631.476 230.485 631.476 230.485 631.476 230.485C631.476 230.485 631.476 230.485 631.476 230.485C631.476 230.486 631.476 230.486 631.476 230.487C631.476 230.488 631.476 230.49 631.476 230.494C631.476 230.501 631.475 230.512 631.474 230.527C631.471 230.556 631.468 230.601 631.462 230.658C631.449 230.773 631.427 230.936 631.39 231.128C631.313 231.516 631.176 232.004 630.932 232.44C630.689 232.876 630.354 233.239 629.888 233.421C629.426 233.602 628.78 233.627 627.868 233.276L627.617 233.93ZM354.178 163.102L574.561 216.43L574.725 215.749L354.342 162.421L354.178 163.102ZM115.139 101.046L119.045 101.88L119.191 101.196L115.285 100.362L115.139 101.046ZM119.029 101.877L354.172 163.1L354.348 162.423L119.206 101.199L119.029 101.877Z" fill="#BCBCBC"/>
<path d="M110.596 107.065C110.459 107.059 110.342 107.165 110.335 107.303C110.329 107.441 110.436 107.558 110.574 107.564L110.596 107.065ZM577.656 222.141L577.726 221.9L577.714 221.897L577.656 222.141ZM362.46 170.361L362.399 170.604L362.402 170.604L362.46 170.361ZM115.335 107.529L115.397 107.287L115.372 107.28L115.346 107.279L115.335 107.529ZM577.656 222.141C577.586 222.381 577.586 222.381 577.587 222.381C577.587 222.381 577.588 222.381 577.589 222.381C577.591 222.382 577.594 222.383 577.597 222.384C577.605 222.386 577.616 222.389 577.631 222.394C577.66 222.402 577.705 222.415 577.763 222.432C577.88 222.466 578.053 222.516 578.279 222.582C578.731 222.713 579.395 222.906 580.242 223.153C581.934 223.645 584.357 224.35 587.276 225.2C593.113 226.902 600.938 229.186 608.883 231.516C624.784 236.18 641.142 241.022 643.068 241.762L643.247 241.295C641.297 240.546 624.904 235.694 609.024 231.036C601.078 228.706 593.253 226.422 587.415 224.72C584.496 223.87 582.074 223.165 580.381 222.672C579.535 222.426 578.871 222.233 578.419 222.102C578.193 222.036 578.019 221.986 577.903 221.952C577.844 221.935 577.8 221.922 577.77 221.913C577.756 221.909 577.744 221.906 577.737 221.904C577.733 221.903 577.73 221.902 577.728 221.901C577.728 221.901 577.727 221.901 577.726 221.901C577.726 221.901 577.726 221.9 577.656 222.141ZM643.068 241.762C644.078 242.15 644.884 242.155 645.522 241.905C646.157 241.657 646.585 241.171 646.871 240.658C647.157 240.146 647.31 239.591 647.393 239.169C647.435 238.958 647.459 238.777 647.473 238.648C647.48 238.584 647.484 238.533 647.487 238.497C647.488 238.479 647.489 238.465 647.49 238.455C647.49 238.45 647.49 238.446 647.49 238.443C647.49 238.442 647.49 238.441 647.49 238.44C647.491 238.44 647.49 238.439 647.491 238.439C647.491 238.439 647.491 238.439 647.491 238.439C647.491 238.438 647.491 238.438 647.241 238.427C646.991 238.416 646.991 238.416 646.991 238.416C646.991 238.416 646.991 238.416 646.991 238.416C646.991 238.416 646.991 238.416 646.991 238.416C646.991 238.416 646.991 238.417 646.991 238.417C646.991 238.419 646.991 238.422 646.991 238.425C646.99 238.433 646.989 238.444 646.988 238.46C646.986 238.49 646.982 238.536 646.976 238.595C646.963 238.711 646.941 238.878 646.903 239.073C646.825 239.466 646.685 239.965 646.434 240.415C646.184 240.863 645.833 241.246 645.34 241.44C644.848 241.632 644.175 241.652 643.247 241.295L643.068 241.762ZM362.402 170.604L577.597 222.384L577.714 221.897L362.519 170.118L362.402 170.604ZM110.574 107.564L115.324 107.779L115.346 107.279L110.596 107.065L110.574 107.564ZM115.274 107.771L362.399 170.604L362.522 170.119L115.397 107.287L115.274 107.771Z" fill="#BCBCBC"/>
<path d="M111.4 113.431C111.266 113.398 111.131 113.479 111.098 113.613C111.065 113.747 111.146 113.883 111.28 113.916L111.4 113.431ZM580.698 227.535L580.764 227.294L580.755 227.292L580.698 227.535ZM384.315 181.206L384.255 181.449L384.258 181.449L384.315 181.206ZM580.698 227.535C580.631 227.776 580.632 227.776 580.632 227.777C580.633 227.777 580.634 227.777 580.635 227.777C580.637 227.778 580.64 227.779 580.645 227.78C580.654 227.782 580.667 227.786 580.685 227.791C580.721 227.801 580.774 227.816 580.844 227.835C580.984 227.874 581.192 227.931 581.463 228.006C582.006 228.156 582.803 228.376 583.818 228.657C585.849 229.218 588.755 230.022 592.254 230.992C599.252 232.93 608.623 235.53 618.114 238.177C627.606 240.824 637.219 243.517 644.701 245.641C652.193 247.769 657.527 249.32 658.483 249.687L658.662 249.221C657.679 248.843 652.311 247.282 644.838 245.16C637.355 243.035 627.741 240.342 618.249 237.695C608.757 235.048 599.385 232.448 592.387 230.51C588.888 229.54 585.983 228.737 583.952 228.175C582.936 227.894 582.139 227.674 581.596 227.524C581.325 227.449 581.117 227.392 580.977 227.353C580.907 227.334 580.854 227.319 580.818 227.309C580.8 227.304 580.787 227.3 580.778 227.298C580.773 227.297 580.77 227.296 580.768 227.295C580.767 227.295 580.766 227.295 580.765 227.295C580.765 227.294 580.764 227.294 580.698 227.535ZM658.483 249.687C659.488 250.073 660.26 250.082 660.845 249.821C661.43 249.561 661.773 249.057 661.973 248.536C662.173 248.017 662.24 247.456 662.259 247.033C662.269 246.82 662.266 246.638 662.261 246.509C662.259 246.444 662.256 246.393 662.253 246.357C662.252 246.339 662.251 246.325 662.25 246.315C662.25 246.31 662.249 246.306 662.249 246.303C662.249 246.302 662.249 246.301 662.249 246.3C662.249 246.3 662.249 246.299 662.249 246.299C662.249 246.299 662.249 246.299 662.249 246.299C662.249 246.299 662.249 246.299 662 246.323C661.751 246.347 661.751 246.347 661.751 246.347C661.751 246.347 661.751 246.347 661.751 246.347C661.751 246.347 661.751 246.347 661.751 246.347C661.751 246.347 661.751 246.348 661.751 246.349C661.751 246.35 661.752 246.353 661.752 246.357C661.752 246.364 661.753 246.376 661.754 246.392C661.757 246.423 661.759 246.469 661.762 246.528C661.766 246.646 661.768 246.813 661.76 247.01C661.742 247.407 661.679 247.908 661.506 248.357C661.334 248.806 661.062 249.177 660.641 249.365C660.22 249.552 659.595 249.579 658.662 249.221L658.483 249.687ZM111.28 113.916L384.255 181.449L384.375 180.963L111.4 113.431L111.28 113.916ZM384.258 181.449L580.641 227.779L580.755 227.292L384.373 180.963L384.258 181.449Z" fill="#BCBCBC"/>
<path d="M109.667 121.618C109.585 121.614 109.515 121.678 109.511 121.761C109.507 121.843 109.571 121.914 109.654 121.917L109.667 121.618ZM612.302 240.792L612.262 240.936L612.264 240.937L612.302 240.792ZM392.546 188.15L392.511 188.296L392.512 188.296L392.546 188.15ZM575.959 230.607L575.999 230.463L575.993 230.461L575.959 230.607ZM113.936 121.96L113.97 121.814L113.956 121.811L113.942 121.81L113.936 121.96ZM612.302 240.792C612.264 240.937 612.264 240.937 612.265 240.937C612.265 240.937 612.266 240.938 612.267 240.938C612.269 240.938 612.271 240.939 612.275 240.94C612.282 240.942 612.292 240.944 612.306 240.948C612.334 240.955 612.375 240.966 612.43 240.98C612.54 241.009 612.702 241.052 612.914 241.107C613.339 241.218 613.962 241.381 614.756 241.589C616.344 242.004 618.617 242.6 621.357 243.319C626.837 244.758 634.185 246.692 641.653 248.672C649.121 250.652 656.71 252.679 662.675 254.304C668.645 255.93 672.974 257.15 673.934 257.519L674.041 257.239C673.063 256.863 668.712 255.638 662.753 254.014C656.788 252.389 649.198 250.362 641.73 248.382C634.261 246.402 626.914 244.468 621.434 243.029C618.693 242.31 616.42 241.714 614.832 241.298C614.038 241.091 613.415 240.928 612.99 240.817C612.778 240.761 612.616 240.719 612.506 240.69C612.451 240.676 612.41 240.665 612.382 240.658C612.368 240.654 612.358 240.651 612.351 240.65C612.347 240.649 612.344 240.648 612.343 240.648C612.342 240.647 612.341 240.647 612.341 240.647C612.34 240.647 612.34 240.647 612.302 240.792ZM673.934 257.519C674.929 257.902 675.679 257.861 676.236 257.546C676.788 257.235 677.116 256.675 677.312 256.092C677.508 255.507 677.578 254.878 677.599 254.4C677.61 254.16 677.609 253.956 677.605 253.812C677.603 253.739 677.6 253.682 677.598 253.643C677.597 253.623 677.596 253.607 677.595 253.597C677.595 253.592 677.595 253.588 677.594 253.585C677.594 253.583 677.594 253.582 677.594 253.581C677.594 253.581 677.594 253.581 677.594 253.581C677.594 253.58 677.594 253.58 677.594 253.58C677.594 253.58 677.594 253.58 677.444 253.592C677.295 253.604 677.295 253.604 677.295 253.604C677.295 253.604 677.295 253.604 677.295 253.604C677.295 253.604 677.295 253.604 677.295 253.604C677.295 253.605 677.295 253.606 677.295 253.607C677.295 253.609 677.296 253.613 677.296 253.617C677.297 253.627 677.297 253.641 677.298 253.659C677.301 253.696 677.303 253.751 677.305 253.82C677.309 253.958 677.31 254.155 677.3 254.386C677.279 254.851 677.211 255.449 677.027 255.996C676.843 256.546 676.549 257.026 676.089 257.285C675.634 257.541 674.984 257.601 674.041 257.239L673.934 257.519ZM392.512 188.296L575.925 230.753L575.993 230.461L392.579 188.004L392.512 188.296ZM575.918 230.752L612.262 240.936L612.343 240.648L575.999 230.463L575.918 230.752ZM109.654 121.917L113.929 122.11L113.942 121.81L109.667 121.618L109.654 121.917ZM113.901 122.106L392.511 188.296L392.58 188.004L113.97 121.814L113.901 122.106Z" fill="#BCBCBC"/>
<g filter="url(#filter21_d_11_14347)">
<circle cx="3" cy="3" r="3" transform="matrix(-0.473031 0.881046 -0.881045 -0.473033 680.114 252.699)" fill="url(#paint44_linear_11_14347)"/>
<circle cx="3" cy="3" r="3" transform="matrix(-0.473031 0.881046 -0.881045 -0.473033 668.66 246.55)" fill="url(#paint45_linear_11_14347)"/>
<circle cx="3" cy="3" r="3" transform="matrix(-0.473031 0.881046 -0.881045 -0.473033 657.207 240.4)" fill="url(#paint46_linear_11_14347)"/>
<circle cx="3" cy="3" r="3" transform="matrix(-0.473031 0.881046 -0.881045 -0.473033 645.753 234.251)" fill="url(#paint47_linear_11_14347)"/>
<circle cx="3" cy="3" r="3" transform="matrix(-0.473031 0.881046 -0.881045 -0.473033 634.299 228.101)" fill="url(#paint48_linear_11_14347)"/>
<circle cx="3" cy="3" r="3" transform="matrix(-0.473031 0.881046 -0.881045 -0.473033 622.846 221.952)" fill="url(#paint49_linear_11_14347)"/>
</g>
<defs>
<filter id="filter0_d_11_14347" x="8.04199" y="80.1263" width="7.8562" height="12.6035" filterUnits="userSpaceOnUse" color-interpolation-filters="sRGB">
<feFlood flood-opacity="0" result="BackgroundImageFix"/>
<feColorMatrix in="SourceAlpha" type="matrix" values="0 0 0 0 0 0 0 0 0 0 0 0 0 0 0 0 0 0 127 0" result="hardAlpha"/>
<feOffset dy="0.2"/>
<feGaussianBlur stdDeviation="0.25"/>
<feComposite in2="hardAlpha" operator="out"/>
<feColorMatrix type="matrix" values="0 0 0 0 0 0 0 0 0 0 0 0 0 0 0 0 0 0 0.25 0"/>
<feBlend mode="normal" in2="BackgroundImageFix" result="effect1_dropShadow_11_14347"/>
<feBlend mode="normal" in="SourceGraphic" in2="effect1_dropShadow_11_14347" result="shape"/>
</filter>
<filter id="filter1_d_11_14347" x="42.4351" y="136.632" width="44.8381" height="39.5348" filterUnits="userSpaceOnUse" color-interpolation-filters="sRGB">
<feFlood flood-opacity="0" result="BackgroundImageFix"/>
<feColorMatrix in="SourceAlpha" type="matrix" values="0 0 0 0 0 0 0 0 0 0 0 0 0 0 0 0 0 0 127 0" result="hardAlpha"/>
<feOffset dy="2"/>
<feComposite in2="hardAlpha" operator="out"/>
<feColorMatrix type="matrix" values="0 0 0 0 0 0 0 0 0 0 0 0 0 0 0 0 0 0 0.35 0"/>
<feBlend mode="normal" in2="BackgroundImageFix" result="effect1_dropShadow_11_14347"/>
<feBlend mode="normal" in="SourceGraphic" in2="effect1_dropShadow_11_14347" result="shape"/>
</filter>
<filter id="filter2_d_11_14347" x="231.818" y="115.998" width="2.20024" height="2.30037" filterUnits="userSpaceOnUse" color-interpolation-filters="sRGB">
<feFlood flood-opacity="0" result="BackgroundImageFix"/>
<feColorMatrix in="SourceAlpha" type="matrix" values="0 0 0 0 0 0 0 0 0 0 0 0 0 0 0 0 0 0 127 0" result="hardAlpha"/>
<feOffset dx="0.2" dy="0.3"/>
<feComposite in2="hardAlpha" operator="out"/>
<feColorMatrix type="matrix" values="0 0 0 0 0 0 0 0 0 0 0 0 0 0 0 0 0 0 0.2 0"/>
<feBlend mode="normal" in2="BackgroundImageFix" result="effect1_dropShadow_11_14347"/>
<feBlend mode="normal" in="SourceGraphic" in2="effect1_dropShadow_11_14347" result="shape"/>
</filter>
<filter id="filter3_d_11_14347" x="230.89" y="120.911" width="2.20024" height="2.30037" filterUnits="userSpaceOnUse" color-interpolation-filters="sRGB">
<feFlood flood-opacity="0" result="BackgroundImageFix"/>
<feColorMatrix in="SourceAlpha" type="matrix" values="0 0 0 0 0 0 0 0 0 0 0 0 0 0 0 0 0 0 127 0" result="hardAlpha"/>
<feOffset dx="0.2" dy="0.3"/>
<feComposite in2="hardAlpha" operator="out"/>
<feColorMatrix type="matrix" values="0 0 0 0 0 0 0 0 0 0 0 0 0 0 0 0 0 0 0.2 0"/>
<feBlend mode="normal" in2="BackgroundImageFix" result="effect1_dropShadow_11_14347"/>
<feBlend mode="normal" in="SourceGraphic" in2="effect1_dropShadow_11_14347" result="shape"/>
</filter>
<filter id="filter4_d_11_14347" x="229.961" y="125.824" width="2.20024" height="2.30037" filterUnits="userSpaceOnUse" color-interpolation-filters="sRGB">
<feFlood flood-opacity="0" result="BackgroundImageFix"/>
<feColorMatrix in="SourceAlpha" type="matrix" values="0 0 0 0 0 0 0 0 0 0 0 0 0 0 0 0 0 0 127 0" result="hardAlpha"/>
<feOffset dx="0.2" dy="0.3"/>
<feComposite in2="hardAlpha" operator="out"/>
<feColorMatrix type="matrix" values="0 0 0 0 0 0 0 0 0 0 0 0 0 0 0 0 0 0 0.2 0"/>
<feBlend mode="normal" in2="BackgroundImageFix" result="effect1_dropShadow_11_14347"/>
<feBlend mode="normal" in="SourceGraphic" in2="effect1_dropShadow_11_14347" result="shape"/>
</filter>
<filter id="filter5_d_11_14347" x="229.032" y="130.737" width="2.20024" height="2.30037" filterUnits="userSpaceOnUse" color-interpolation-filters="sRGB">
<feFlood flood-opacity="0" result="BackgroundImageFix"/>
<feColorMatrix in="SourceAlpha" type="matrix" values="0 0 0 0 0 0 0 0 0 0 0 0 0 0 0 0 0 0 127 0" result="hardAlpha"/>
<feOffset dx="0.2" dy="0.3"/>
<feComposite in2="hardAlpha" operator="out"/>
<feColorMatrix type="matrix" values="0 0 0 0 0 0 0 0 0 0 0 0 0 0 0 0 0 0 0.2 0"/>
<feBlend mode="normal" in2="BackgroundImageFix" result="effect1_dropShadow_11_14347"/>
<feBlend mode="normal" in="SourceGraphic" in2="effect1_dropShadow_11_14347" result="shape"/>
</filter>
<filter id="filter6_d_11_14347" x="228.103" y="135.65" width="2.20024" height="2.30037" filterUnits="userSpaceOnUse" color-interpolation-filters="sRGB">
<feFlood flood-opacity="0" result="BackgroundImageFix"/>
<feColorMatrix in="SourceAlpha" type="matrix" values="0 0 0 0 0 0 0 0 0 0 0 0 0 0 0 0 0 0 127 0" result="hardAlpha"/>
<feOffset dx="0.2" dy="0.3"/>
<feComposite in2="hardAlpha" operator="out"/>
<feColorMatrix type="matrix" values="0 0 0 0 0 0 0 0 0 0 0 0 0 0 0 0 0 0 0.2 0"/>
<feBlend mode="normal" in2="BackgroundImageFix" result="effect1_dropShadow_11_14347"/>
<feBlend mode="normal" in="SourceGraphic" in2="effect1_dropShadow_11_14347" result="shape"/>
</filter>
<filter id="filter7_d_11_14347" x="227.175" y="140.563" width="2.20024" height="2.30037" filterUnits="userSpaceOnUse" color-interpolation-filters="sRGB">
<feFlood flood-opacity="0" result="BackgroundImageFix"/>
<feColorMatrix in="SourceAlpha" type="matrix" values="0 0 0 0 0 0 0 0 0 0 0 0 0 0 0 0 0 0 127 0" result="hardAlpha"/>
<feOffset dx="0.2" dy="0.3"/>
<feComposite in2="hardAlpha" operator="out"/>
<feColorMatrix type="matrix" values="0 0 0 0 0 0 0 0 0 0 0 0 0 0 0 0 0 0 0.2 0"/>
<feBlend mode="normal" in2="BackgroundImageFix" result="effect1_dropShadow_11_14347"/>
<feBlend mode="normal" in="SourceGraphic" in2="effect1_dropShadow_11_14347" result="shape"/>
</filter>
<filter id="filter8_d_11_14347" x="188.304" y="104.833" width="2.20049" height="2.30024" filterUnits="userSpaceOnUse" color-interpolation-filters="sRGB">
<feFlood flood-opacity="0" result="BackgroundImageFix"/>
<feColorMatrix in="SourceAlpha" type="matrix" values="0 0 0 0 0 0 0 0 0 0 0 0 0 0 0 0 0 0 127 0" result="hardAlpha"/>
<feOffset dx="0.2" dy="0.3"/>
<feComposite in2="hardAlpha" operator="out"/>
<feColorMatrix type="matrix" values="0 0 0 0 0 0 0 0 0 0 0 0 0 0 0 0 0 0 0.2 0"/>
<feBlend mode="normal" in2="BackgroundImageFix" result="effect1_dropShadow_11_14347"/>
<feBlend mode="normal" in="SourceGraphic" in2="effect1_dropShadow_11_14347" result="shape"/>
</filter>
<filter id="filter9_d_11_14347" x="187.495" y="109.767" width="2.20049" height="2.30024" filterUnits="userSpaceOnUse" color-interpolation-filters="sRGB">
<feFlood flood-opacity="0" result="BackgroundImageFix"/>
<feColorMatrix in="SourceAlpha" type="matrix" values="0 0 0 0 0 0 0 0 0 0 0 0 0 0 0 0 0 0 127 0" result="hardAlpha"/>
<feOffset dx="0.2" dy="0.3"/>
<feComposite in2="hardAlpha" operator="out"/>
<feColorMatrix type="matrix" values="0 0 0 0 0 0 0 0 0 0 0 0 0 0 0 0 0 0 0.2 0"/>
<feBlend mode="normal" in2="BackgroundImageFix" result="effect1_dropShadow_11_14347"/>
<feBlend mode="normal" in="SourceGraphic" in2="effect1_dropShadow_11_14347" result="shape"/>
</filter>
<filter id="filter10_d_11_14347" x="186.686" y="114.701" width="2.20049" height="2.30024" filterUnits="userSpaceOnUse" color-interpolation-filters="sRGB">
<feFlood flood-opacity="0" result="BackgroundImageFix"/>
<feColorMatrix in="SourceAlpha" type="matrix" values="0 0 0 0 0 0 0 0 0 0 0 0 0 0 0 0 0 0 127 0" result="hardAlpha"/>
<feOffset dx="0.2" dy="0.3"/>
<feComposite in2="hardAlpha" operator="out"/>
<feColorMatrix type="matrix" values="0 0 0 0 0 0 0 0 0 0 0 0 0 0 0 0 0 0 0.2 0"/>
<feBlend mode="normal" in2="BackgroundImageFix" result="effect1_dropShadow_11_14347"/>
<feBlend mode="normal" in="SourceGraphic" in2="effect1_dropShadow_11_14347" result="shape"/>
</filter>
<filter id="filter11_d_11_14347" x="185.877" y="119.635" width="2.20049" height="2.30024" filterUnits="userSpaceOnUse" color-interpolation-filters="sRGB">
<feFlood flood-opacity="0" result="BackgroundImageFix"/>
<feColorMatrix in="SourceAlpha" type="matrix" values="0 0 0 0 0 0 0 0 0 0 0 0 0 0 0 0 0 0 127 0" result="hardAlpha"/>
<feOffset dx="0.2" dy="0.3"/>
<feComposite in2="hardAlpha" operator="out"/>
<feColorMatrix type="matrix" values="0 0 0 0 0 0 0 0 0 0 0 0 0 0 0 0 0 0 0.2 0"/>
<feBlend mode="normal" in2="BackgroundImageFix" result="effect1_dropShadow_11_14347"/>
<feBlend mode="normal" in="SourceGraphic" in2="effect1_dropShadow_11_14347" result="shape"/>
</filter>
<filter id="filter12_d_11_14347" x="185.067" y="124.57" width="2.20049" height="2.30024" filterUnits="userSpaceOnUse" color-interpolation-filters="sRGB">
<feFlood flood-opacity="0" result="BackgroundImageFix"/>
<feColorMatrix in="SourceAlpha" type="matrix" values="0 0 0 0 0 0 0 0 0 0 0 0 0 0 0 0 0 0 127 0" result="hardAlpha"/>
<feOffset dx="0.2" dy="0.3"/>
<feComposite in2="hardAlpha" operator="out"/>
<feColorMatrix type="matrix" values="0 0 0 0 0 0 0 0 0 0 0 0 0 0 0 0 0 0 0.2 0"/>
<feBlend mode="normal" in2="BackgroundImageFix" result="effect1_dropShadow_11_14347"/>
<feBlend mode="normal" in="SourceGraphic" in2="effect1_dropShadow_11_14347" result="shape"/>
</filter>
<filter id="filter13_d_11_14347" x="184.258" y="129.504" width="2.20049" height="2.30024" filterUnits="userSpaceOnUse" color-interpolation-filters="sRGB">
<feFlood flood-opacity="0" result="BackgroundImageFix"/>
<feColorMatrix in="SourceAlpha" type="matrix" values="0 0 0 0 0 0 0 0 0 0 0 0 0 0 0 0 0 0 127 0" result="hardAlpha"/>
<feOffset dx="0.2" dy="0.3"/>
<feComposite in2="hardAlpha" operator="out"/>
<feColorMatrix type="matrix" values="0 0 0 0 0 0 0 0 0 0 0 0 0 0 0 0 0 0 0.2 0"/>
<feBlend mode="normal" in2="BackgroundImageFix" result="effect1_dropShadow_11_14347"/>
<feBlend mode="normal" in="SourceGraphic" in2="effect1_dropShadow_11_14347" result="shape"/>
</filter>
<filter id="filter14_d_11_14347" x="153.6" y="96.2125" width="2.20024" height="2.30037" filterUnits="userSpaceOnUse" color-interpolation-filters="sRGB">
<feFlood flood-opacity="0" result="BackgroundImageFix"/>
<feColorMatrix in="SourceAlpha" type="matrix" values="0 0 0 0 0 0 0 0 0 0 0 0 0 0 0 0 0 0 127 0" result="hardAlpha"/>
<feOffset dx="0.2" dy="0.3"/>
<feComposite in2="hardAlpha" operator="out"/>
<feColorMatrix type="matrix" values="0 0 0 0 0 0 0 0 0 0 0 0 0 0 0 0 0 0 0.2 0"/>
<feBlend mode="normal" in2="BackgroundImageFix" result="effect1_dropShadow_11_14347"/>
<feBlend mode="normal" in="SourceGraphic" in2="effect1_dropShadow_11_14347" result="shape"/>
</filter>
<filter id="filter15_d_11_14347" x="150.96" y="101.037" width="2.20024" height="2.30037" filterUnits="userSpaceOnUse" color-interpolation-filters="sRGB">
<feFlood flood-opacity="0" result="BackgroundImageFix"/>
<feColorMatrix in="SourceAlpha" type="matrix" values="0 0 0 0 0 0 0 0 0 0 0 0 0 0 0 0 0 0 127 0" result="hardAlpha"/>
<feOffset dx="0.2" dy="0.3"/>
<feComposite in2="hardAlpha" operator="out"/>
<feColorMatrix type="matrix" values="0 0 0 0 0 0 0 0 0 0 0 0 0 0 0 0 0 0 0.2 0"/>
<feBlend mode="normal" in2="BackgroundImageFix" result="effect1_dropShadow_11_14347"/>
<feBlend mode="normal" in="SourceGraphic" in2="effect1_dropShadow_11_14347" result="shape"/>
</filter>
<filter id="filter16_d_11_14347" x="148.32" y="105.862" width="2.20024" height="2.30037" filterUnits="userSpaceOnUse" color-interpolation-filters="sRGB">
<feFlood flood-opacity="0" result="BackgroundImageFix"/>
<feColorMatrix in="SourceAlpha" type="matrix" values="0 0 0 0 0 0 0 0 0 0 0 0 0 0 0 0 0 0 127 0" result="hardAlpha"/>
<feOffset dx="0.2" dy="0.3"/>
<feComposite in2="hardAlpha" operator="out"/>
<feColorMatrix type="matrix" values="0 0 0 0 0 0 0 0 0 0 0 0 0 0 0 0 0 0 0.2 0"/>
<feBlend mode="normal" in2="BackgroundImageFix" result="effect1_dropShadow_11_14347"/>
<feBlend mode="normal" in="SourceGraphic" in2="effect1_dropShadow_11_14347" result="shape"/>
</filter>
<filter id="filter17_d_11_14347" x="145.68" y="110.687" width="2.20024" height="2.30037" filterUnits="userSpaceOnUse" color-interpolation-filters="sRGB">
<feFlood flood-opacity="0" result="BackgroundImageFix"/>
<feColorMatrix in="SourceAlpha" type="matrix" values="0 0 0 0 0 0 0 0 0 0 0 0 0 0 0 0 0 0 127 0" result="hardAlpha"/>
<feOffset dx="0.2" dy="0.3"/>
<feComposite in2="hardAlpha" operator="out"/>
<feColorMatrix type="matrix" values="0 0 0 0 0 0 0 0 0 0 0 0 0 0 0 0 0 0 0.2 0"/>
<feBlend mode="normal" in2="BackgroundImageFix" result="effect1_dropShadow_11_14347"/>
<feBlend mode="normal" in="SourceGraphic" in2="effect1_dropShadow_11_14347" result="shape"/>
</filter>
<filter id="filter18_d_11_14347" x="143.04" y="115.512" width="2.20024" height="2.30037" filterUnits="userSpaceOnUse" color-interpolation-filters="sRGB">
<feFlood flood-opacity="0" result="BackgroundImageFix"/>
<feColorMatrix in="SourceAlpha" type="matrix" values="0 0 0 0 0 0 0 0 0 0 0 0 0 0 0 0 0 0 127 0" result="hardAlpha"/>
<feOffset dx="0.2" dy="0.3"/>
<feComposite in2="hardAlpha" operator="out"/>
<feColorMatrix type="matrix" values="0 0 0 0 0 0 0 0 0 0 0 0 0 0 0 0 0 0 0.2 0"/>
<feBlend mode="normal" in2="BackgroundImageFix" result="effect1_dropShadow_11_14347"/>
<feBlend mode="normal" in="SourceGraphic" in2="effect1_dropShadow_11_14347" result="shape"/>
</filter>
<filter id="filter19_d_11_14347" x="140.399" y="120.337" width="2.20024" height="2.30037" filterUnits="userSpaceOnUse" color-interpolation-filters="sRGB">
<feFlood flood-opacity="0" result="BackgroundImageFix"/>
<feColorMatrix in="SourceAlpha" type="matrix" values="0 0 0 0 0 0 0 0 0 0 0 0 0 0 0 0 0 0 127 0" result="hardAlpha"/>
<feOffset dx="0.2" dy="0.3"/>
<feComposite in2="hardAlpha" operator="out"/>
<feColorMatrix type="matrix" values="0 0 0 0 0 0 0 0 0 0 0 0 0 0 0 0 0 0 0.2 0"/>
<feBlend mode="normal" in2="BackgroundImageFix" result="effect1_dropShadow_11_14347"/>
<feBlend mode="normal" in="SourceGraphic" in2="effect1_dropShadow_11_14347" result="shape"/>
</filter>
<filter id="filter20_d_11_14347" x="107.012" y="85.1064" width="468.889" height="148.843" filterUnits="userSpaceOnUse" color-interpolation-filters="sRGB">
<feFlood flood-opacity="0" result="BackgroundImageFix"/>
<feColorMatrix in="SourceAlpha" type="matrix" values="0 0 0 0 0 0 0 0 0 0 0 0 0 0 0 0 0 0 127 0" result="hardAlpha"/>
<feOffset dy="2"/>
<feGaussianBlur stdDeviation="1"/>
<feComposite in2="hardAlpha" operator="out"/>
<feColorMatrix type="matrix" values="0 0 0 0 0 0 0 0 0 0 0 0 0 0 0 0 0 0 0.25 0"/>
<feBlend mode="normal" in2="BackgroundImageFix" result="effect1_dropShadow_11_14347"/>
<feBlend mode="normal" in="SourceGraphic" in2="effect1_dropShadow_11_14347" result="shape"/>
</filter>
<filter id="filter21_d_11_14347" x="593.749" y="208.599" width="87.8645" height="53.041" filterUnits="userSpaceOnUse" color-interpolation-filters="sRGB">
<feFlood flood-opacity="0" result="BackgroundImageFix"/>
<feColorMatrix in="SourceAlpha" type="matrix" values="0 0 0 0 0 0 0 0 0 0 0 0 0 0 0 0 0 0 127 0" result="hardAlpha"/>
<feOffset dx="0.5" dy="1"/>
<feGaussianBlur stdDeviation="0.5"/>
<feComposite in2="hardAlpha" operator="out"/>
<feColorMatrix type="matrix" values="0 0 0 0 0 0 0 0 0 0 0 0 0 0 0 0 0 0 0.45 0"/>
<feBlend mode="normal" in2="BackgroundImageFix" result="effect1_dropShadow_11_14347"/>
<feBlend mode="normal" in="SourceGraphic" in2="effect1_dropShadow_11_14347" result="shape"/>
</filter>
<radialGradient id="paint0_diamond_11_14347" cx="0" cy="0" r="1" gradientUnits="userSpaceOnUse" gradientTransform="translate(12.2879 90.4303) rotate(-85.1262) scale(9.23756 618.361)">
<stop stop-color="#818181"/>
<stop offset="1" stop-color="#515151"/>
</radialGradient>
<linearGradient id="paint1_linear_11_14347" x1="250.003" y1="178.635" x2="242.937" y2="175.03" gradientUnits="userSpaceOnUse">
<stop stop-color="#94836F"/>
<stop offset="1" stop-color="#FEF1D9"/>
</linearGradient>
<linearGradient id="paint2_linear_11_14347" x1="304.292" y1="108.375" x2="294.456" y2="97.9565" gradientUnits="userSpaceOnUse">
<stop stop-color="#94836F"/>
<stop offset="1" stop-color="#FEF1D9"/>
</linearGradient>
<linearGradient id="paint3_linear_11_14347" x1="340.093" y1="127.202" x2="-48.0793" y2="137.07" gradientUnits="userSpaceOnUse">
<stop stop-color="#F4EED8"/>
<stop offset="1" stop-color="#E2CFB2"/>
</linearGradient>
<linearGradient id="paint4_linear_11_14347" x1="149.58" y1="46.2666" x2="17.7044" y2="40.3111" gradientUnits="userSpaceOnUse">
<stop stop-color="white"/>
<stop offset="1" stop-color="white" stop-opacity="0.2"/>
</linearGradient>
<linearGradient id="paint5_linear_11_14347" x1="57.5246" y1="135.104" x2="55.8394" y2="174.346" gradientUnits="userSpaceOnUse">
<stop stop-color="#CACACA"/>
<stop offset="0.510417" stop-color="#F3F3F3"/>
<stop offset="1" stop-color="#959595"/>
</linearGradient>
<linearGradient id="paint6_linear_11_14347" x1="70.8673" y1="151.278" x2="38.7977" y2="177.432" gradientUnits="userSpaceOnUse">
<stop stop-color="#3D3D3D"/>
<stop offset="1" stop-color="#0B0B0B" stop-opacity="0"/>
</linearGradient>
<linearGradient id="paint7_linear_11_14347" x1="-0.146512" y1="8.15317" x2="9.14896" y2="8.13516" gradientUnits="userSpaceOnUse">
<stop stop-color="#CACACA"/>
<stop offset="0.510417" stop-color="#F3F3F3"/>
<stop offset="1" stop-color="#959595"/>
</linearGradient>
<linearGradient id="paint8_linear_11_14347" x1="-0.146512" y1="4.06586" x2="9.14885" y2="4.02976" gradientUnits="userSpaceOnUse">
<stop stop-color="#CACACA"/>
<stop offset="0.510417" stop-color="#F3F3F3"/>
<stop offset="1" stop-color="#959595"/>
</linearGradient>
<linearGradient id="paint9_linear_11_14347" x1="-0.146512" y1="8.15317" x2="9.14896" y2="8.13517" gradientUnits="userSpaceOnUse">
<stop stop-color="#CACACA"/>
<stop offset="0.510417" stop-color="#F3F3F3"/>
<stop offset="1" stop-color="#959595"/>
</linearGradient>
<linearGradient id="paint10_linear_11_14347" x1="-0.146512" y1="8.15317" x2="9.14896" y2="8.13517" gradientUnits="userSpaceOnUse">
<stop stop-color="#CACACA"/>
<stop offset="0.510417" stop-color="#F3F3F3"/>
<stop offset="1" stop-color="#959595"/>
</linearGradient>
<linearGradient id="paint11_linear_11_14347" x1="-0.146512" y1="5.19968" x2="9.14891" y2="5.17144" gradientUnits="userSpaceOnUse">
<stop stop-color="#CACACA"/>
<stop offset="0.510417" stop-color="#F3F3F3"/>
<stop offset="1" stop-color="#959595"/>
</linearGradient>
<linearGradient id="paint12_linear_11_14347" x1="-0.146512" y1="8.15317" x2="9.14896" y2="8.13517" gradientUnits="userSpaceOnUse">
<stop stop-color="#CACACA"/>
<stop offset="0.510417" stop-color="#F3F3F3"/>
<stop offset="1" stop-color="#959595"/>
</linearGradient>
<linearGradient id="paint13_linear_11_14347" x1="593.99" y1="252.78" x2="566.479" y2="251.538" gradientUnits="userSpaceOnUse">
<stop stop-color="#8F6635"/>
<stop offset="1" stop-color="#8F6635" stop-opacity="0"/>
</linearGradient>
<linearGradient id="paint14_linear_11_14347" x1="669.761" y1="296.411" x2="648.498" y2="272.449" gradientUnits="userSpaceOnUse">
<stop stop-color="#8D5A2A"/>
<stop offset="0.614583" stop-color="#B8804B"/>
<stop offset="1" stop-color="#8D5A2A"/>
</linearGradient>
<linearGradient id="paint15_linear_11_14347" x1="545.69" y1="158.681" x2="534.126" y2="269.227" gradientUnits="userSpaceOnUse">
<stop stop-color="#CF9652"/>
<stop offset="1" stop-color="#A7682D"/>
</linearGradient>
<linearGradient id="paint16_linear_11_14347" x1="572.757" y1="203.308" x2="570.171" y2="231.451" gradientUnits="userSpaceOnUse">
<stop offset="0.895833" stop-color="#FFF6DF"/>
<stop offset="1" stop-color="#EDDEC1"/>
</linearGradient>
<linearGradient id="paint17_linear_11_14347" x1="547.444" y1="196.25" x2="545.397" y2="227.046" gradientUnits="userSpaceOnUse">
<stop stop-color="#CACACA"/>
<stop offset="0.510417" stop-color="#F3F3F3"/>
<stop offset="1" stop-color="#959595"/>
</linearGradient>
<linearGradient id="paint18_linear_11_14347" x1="524.364" y1="190.424" x2="521.893" y2="221.56" gradientUnits="userSpaceOnUse">
<stop stop-color="#CACACA"/>
<stop offset="0.510417" stop-color="#F3F3F3"/>
<stop offset="1" stop-color="#959595"/>
</linearGradient>
<linearGradient id="paint19_linear_11_14347" x1="502.128" y1="184.515" x2="499.944" y2="216.507" gradientUnits="userSpaceOnUse">
<stop stop-color="#CACACA"/>
<stop offset="0.510417" stop-color="#F3F3F3"/>
<stop offset="1" stop-color="#959595"/>
</linearGradient>
<linearGradient id="paint20_linear_11_14347" x1="481.557" y1="179.222" x2="478.965" y2="211.721" gradientUnits="userSpaceOnUse">
<stop stop-color="#CACACA"/>
<stop offset="0.510417" stop-color="#F3F3F3"/>
<stop offset="1" stop-color="#959595"/>
</linearGradient>
<linearGradient id="paint21_linear_11_14347" x1="462.126" y1="174.081" x2="459.453" y2="207.096" gradientUnits="userSpaceOnUse">
<stop stop-color="#CACACA"/>
<stop offset="0.510417" stop-color="#F3F3F3"/>
<stop offset="1" stop-color="#959595"/>
</linearGradient>
<linearGradient id="paint22_linear_11_14347" x1="443.904" y1="169.407" x2="441.232" y2="202.877" gradientUnits="userSpaceOnUse">
<stop stop-color="#CACACA"/>
<stop offset="0.510417" stop-color="#F3F3F3"/>
<stop offset="1" stop-color="#959595"/>
</linearGradient>
<linearGradient id="paint23_linear_11_14347" x1="425.815" y1="164.756" x2="423.014" y2="198.637" gradientUnits="userSpaceOnUse">
<stop stop-color="#CACACA"/>
<stop offset="0.510417" stop-color="#F3F3F3"/>
<stop offset="1" stop-color="#959595"/>
</linearGradient>
<linearGradient id="paint24_linear_11_14347" x1="410.609" y1="160.659" x2="407.019" y2="195.072" gradientUnits="userSpaceOnUse">
<stop stop-color="#CACACA"/>
<stop offset="0.510417" stop-color="#F3F3F3"/>
<stop offset="1" stop-color="#959595"/>
</linearGradient>
<linearGradient id="paint25_linear_11_14347" x1="393.537" y1="156.576" x2="390.303" y2="191.346" gradientUnits="userSpaceOnUse">
<stop stop-color="#CACACA"/>
<stop offset="0.510417" stop-color="#F3F3F3"/>
<stop offset="1" stop-color="#959595"/>
</linearGradient>
<linearGradient id="paint26_linear_11_14347" x1="378.297" y1="152.495" x2="374.366" y2="187.731" gradientUnits="userSpaceOnUse">
<stop stop-color="#CACACA"/>
<stop offset="0.510417" stop-color="#F3F3F3"/>
<stop offset="1" stop-color="#959595"/>
</linearGradient>
<linearGradient id="paint27_linear_11_14347" x1="365.478" y1="149.128" x2="361.239" y2="184.365" gradientUnits="userSpaceOnUse">
<stop stop-color="#CACACA"/>
<stop offset="0.510417" stop-color="#F3F3F3"/>
<stop offset="1" stop-color="#959595"/>
</linearGradient>
<linearGradient id="paint28_linear_11_14347" x1="351.489" y1="145.611" x2="347.062" y2="181.176" gradientUnits="userSpaceOnUse">
<stop stop-color="#CACACA"/>
<stop offset="0.510417" stop-color="#F3F3F3"/>
<stop offset="1" stop-color="#959595"/>
</linearGradient>
<linearGradient id="paint29_linear_11_14347" x1="339.442" y1="142.392" x2="335.337" y2="178.251" gradientUnits="userSpaceOnUse">
<stop stop-color="#CACACA"/>
<stop offset="0.510417" stop-color="#F3F3F3"/>
<stop offset="1" stop-color="#959595"/>
</linearGradient>
<linearGradient id="paint30_linear_11_14347" x1="327.264" y1="139.22" x2="322.683" y2="175.361" gradientUnits="userSpaceOnUse">
<stop stop-color="#CACACA"/>
<stop offset="0.510417" stop-color="#F3F3F3"/>
<stop offset="1" stop-color="#959595"/>
</linearGradient>
<linearGradient id="paint31_linear_11_14347" x1="316.367" y1="136.42" x2="311.185" y2="173.021" gradientUnits="userSpaceOnUse">
<stop stop-color="#CACACA"/>
<stop offset="0.510417" stop-color="#F3F3F3"/>
<stop offset="1" stop-color="#959595"/>
</linearGradient>
<linearGradient id="paint32_linear_11_14347" x1="306.136" y1="133.735" x2="301.374" y2="170.287" gradientUnits="userSpaceOnUse">
<stop stop-color="#CACACA"/>
<stop offset="0.510417" stop-color="#F3F3F3"/>
<stop offset="1" stop-color="#959595"/>
</linearGradient>
<linearGradient id="paint33_linear_11_14347" x1="294.318" y1="131.125" x2="289.875" y2="167.812" gradientUnits="userSpaceOnUse">
<stop stop-color="#CACACA"/>
<stop offset="0.510417" stop-color="#F3F3F3"/>
<stop offset="1" stop-color="#959595"/>
</linearGradient>
<linearGradient id="paint34_linear_11_14347" x1="285.273" y1="128.61" x2="280.66" y2="165.401" gradientUnits="userSpaceOnUse">
<stop stop-color="#CACACA"/>
<stop offset="0.510417" stop-color="#F3F3F3"/>
<stop offset="1" stop-color="#959595"/>
</linearGradient>
<linearGradient id="paint35_linear_11_14347" x1="276.133" y1="126.784" x2="271.401" y2="162.985" gradientUnits="userSpaceOnUse">
<stop stop-color="#CACACA"/>
<stop offset="0.510417" stop-color="#F3F3F3"/>
<stop offset="1" stop-color="#959595"/>
</linearGradient>
<linearGradient id="paint36_linear_11_14347" x1="268.595" y1="124.448" x2="263.682" y2="161.098" gradientUnits="userSpaceOnUse">
<stop stop-color="#CACACA"/>
<stop offset="0.510417" stop-color="#F3F3F3"/>
<stop offset="1" stop-color="#959595"/>
</linearGradient>
<linearGradient id="paint37_linear_11_14347" x1="259.634" y1="121.972" x2="254.718" y2="159.058" gradientUnits="userSpaceOnUse">
<stop stop-color="#CACACA"/>
<stop offset="0.510417" stop-color="#F3F3F3"/>
<stop offset="1" stop-color="#959595"/>
</linearGradient>
<linearGradient id="paint38_linear_11_14347" x1="-0.11158" y1="4.82943" x2="6.9676" y2="4.8118" gradientUnits="userSpaceOnUse">
<stop stop-color="#8F8F8F"/>
<stop offset="0.510417" stop-color="#ADADAD"/>
<stop offset="1" stop-color="#7B7B7B"/>
</linearGradient>
<linearGradient id="paint39_linear_11_14347" x1="-0.11158" y1="4.82943" x2="6.9676" y2="4.8118" gradientUnits="userSpaceOnUse">
<stop stop-color="#8F8F8F"/>
<stop offset="0.510417" stop-color="#ADADAD"/>
<stop offset="1" stop-color="#7B7B7B"/>
</linearGradient>
<linearGradient id="paint40_linear_11_14347" x1="-0.11158" y1="4.82943" x2="6.9676" y2="4.8118" gradientUnits="userSpaceOnUse">
<stop stop-color="#8F8F8F"/>
<stop offset="0.510417" stop-color="#ADADAD"/>
<stop offset="1" stop-color="#7B7B7B"/>
</linearGradient>
<linearGradient id="paint41_linear_11_14347" x1="-0.11158" y1="4.82943" x2="6.9676" y2="4.8118" gradientUnits="userSpaceOnUse">
<stop stop-color="#8F8F8F"/>
<stop offset="0.510417" stop-color="#ADADAD"/>
<stop offset="1" stop-color="#7B7B7B"/>
</linearGradient>
<linearGradient id="paint42_linear_11_14347" x1="-0.11158" y1="4.82943" x2="6.9676" y2="4.8118" gradientUnits="userSpaceOnUse">
<stop stop-color="#8F8F8F"/>
<stop offset="0.510417" stop-color="#ADADAD"/>
<stop offset="1" stop-color="#7B7B7B"/>
</linearGradient>
<linearGradient id="paint43_linear_11_14347" x1="-0.11158" y1="4.82943" x2="6.9676" y2="4.8118" gradientUnits="userSpaceOnUse">
<stop stop-color="#8F8F8F"/>
<stop offset="0.510417" stop-color="#ADADAD"/>
<stop offset="1" stop-color="#7B7B7B"/>
</linearGradient>
<linearGradient id="paint44_linear_11_14347" x1="-0.0956401" y1="4.13951" x2="5.97223" y2="4.1244" gradientUnits="userSpaceOnUse">
<stop stop-color="#C0C0C0"/>
<stop offset="0.510417" stop-color="#DBDBDB"/>
<stop offset="1" stop-color="#A9A9A9"/>
</linearGradient>
<linearGradient id="paint45_linear_11_14347" x1="-0.0956401" y1="4.13951" x2="5.97223" y2="4.1244" gradientUnits="userSpaceOnUse">
<stop stop-color="#C0C0C0"/>
<stop offset="0.510417" stop-color="#DBDBDB"/>
<stop offset="1" stop-color="#A9A9A9"/>
</linearGradient>
<linearGradient id="paint46_linear_11_14347" x1="-0.0956401" y1="4.13951" x2="5.97223" y2="4.1244" gradientUnits="userSpaceOnUse">
<stop stop-color="#C0C0C0"/>
<stop offset="0.510417" stop-color="#DBDBDB"/>
<stop offset="1" stop-color="#A9A9A9"/>
</linearGradient>
<linearGradient id="paint47_linear_11_14347" x1="-0.0956401" y1="4.13951" x2="5.97223" y2="4.1244" gradientUnits="userSpaceOnUse">
<stop stop-color="#C0C0C0"/>
<stop offset="0.510417" stop-color="#DBDBDB"/>
<stop offset="1" stop-color="#A9A9A9"/>
</linearGradient>
<linearGradient id="paint48_linear_11_14347" x1="-0.0956401" y1="4.13951" x2="5.97223" y2="4.1244" gradientUnits="userSpaceOnUse">
<stop stop-color="#C0C0C0"/>
<stop offset="0.510417" stop-color="#DBDBDB"/>
<stop offset="1" stop-color="#A9A9A9"/>
</linearGradient>
<linearGradient id="paint49_linear_11_14347" x1="-0.0956401" y1="4.13951" x2="5.97223" y2="4.1244" gradientUnits="userSpaceOnUse">
<stop stop-color="#C0C0C0"/>
<stop offset="0.510417" stop-color="#DBDBDB"/>
<stop offset="1" stop-color="#A9A9A9"/>
</linearGradient>
</defs>
</svg>
